<svg id="svg" version="1.1" xmlns="http://www.w3.org/2000/svg" xmlns:xlink="http://www.w3.org/1999/xlink" width="400" height="400" viewBox="0, 0, 400,400"><g id="svgg"><path id="path0" d="M379.936 5.260 C 377.740 6.043,376.518 7.013,370.078 13.086 C 360.077 22.516,350.401 31.625,344.142 37.500 C 340.824 40.615,336.609 44.577,334.777 46.305 C 325.666 54.895,323.573 56.864,317.980 62.109 C 314.658 65.225,310.528 69.104,308.802 70.729 C 301.052 78.030,290.697 87.770,285.158 92.969 C 281.839 96.084,277.625 100.046,275.792 101.774 C 266.682 110.363,264.589 112.333,258.995 117.578 C 255.674 120.693,251.544 124.572,249.818 126.198 C 242.068 133.498,231.712 143.239,226.174 148.438 C 222.855 151.553,218.640 155.515,216.808 157.242 C 207.697 165.832,205.604 167.801,200.011 173.047 C 196.689 176.162,192.559 180.041,190.833 181.667 C 176.598 195.076,172.832 198.670,172.706 198.969 C 172.510 199.429,200.472 227.387,200.994 227.253 C 201.218 227.196,204.633 223.721,208.582 219.531 C 212.531 215.342,217.094 210.502,218.721 208.776 C 220.348 207.050,224.229 202.920,227.344 199.598 C 232.589 194.005,234.559 191.912,243.148 182.801 C 244.876 180.969,248.838 176.754,251.953 173.436 C 257.152 167.897,266.892 157.542,274.193 149.792 C 275.818 148.066,279.697 143.936,282.813 140.614 C 288.058 135.021,290.027 132.928,298.617 123.817 C 300.344 121.985,304.307 117.770,307.422 114.451 C 310.537 111.133,316.074 105.243,319.727 101.364 C 323.379 97.485,328.916 91.598,332.031 88.282 C 342.885 76.728,348.822 70.416,354.086 64.833 C 355.813 63.000,359.775 58.786,362.891 55.467 C 368.301 49.703,375.618 41.930,387.109 29.740 C 394.831 21.548,395.555 20.231,395.222 14.983 C 394.752 7.585,387.088 2.710,379.936 5.260 " stroke="none" fill="#74b41c" fill-rule="evenodd"></path><path id="path1" d="M137.399 213.187 L 132.426 218.171 157.134 242.877 L 181.843 267.583 186.912 262.502 L 191.981 257.422 187.109 252.539 L 182.238 247.656 187.018 242.865 C 189.646 240.231,191.797 237.901,191.797 237.688 C 191.797 237.185,162.812 208.203,162.308 208.203 C 162.098 208.203,159.769 210.354,157.135 212.982 L 152.344 217.762 147.553 212.982 C 144.918 210.354,142.674 208.203,142.567 208.203 C 142.459 208.203,140.134 210.446,137.399 213.187 M122.555 237.796 L 117.582 242.780 137.408 262.603 L 157.234 282.426 162.305 277.344 L 167.376 272.261 147.654 252.537 C 136.807 241.689,127.842 232.813,127.730 232.813 C 127.619 232.813,125.290 235.055,122.555 237.796 M102.927 257.424 L 97.858 262.505 117.678 282.326 L 137.499 302.146 142.673 296.971 L 147.848 291.796 128.125 272.070 C 117.277 261.221,108.310 252.344,108.199 252.344 C 108.088 252.344,105.715 254.630,102.927 257.424 M43.948 306.638 L 4.499 346.089 9.372 350.974 L 14.246 355.859 9.467 360.650 C 6.838 363.285,4.687 365.613,4.687 365.824 C 4.687 366.327,33.669 395.313,34.172 395.313 C 34.385 395.313,36.715 393.162,39.350 390.533 L 44.141 385.754 49.026 390.628 L 53.912 395.502 93.459 355.954 L 133.006 316.407 108.399 291.797 C 94.865 278.262,83.703 267.188,83.594 267.188 C 83.486 267.188,65.645 284.940,43.948 306.638 " stroke="none" fill="#040404" fill-rule="evenodd"></path><path id="path2" d="" stroke="none" fill="#788c14" fill-rule="evenodd"></path><path id="path3" d="" stroke="none" fill="#403014" fill-rule="evenodd"></path><path id="path4" d="" stroke="none" fill="#043414" fill-rule="evenodd"></path></g></svg>